#!OML:ASF E:\motion texture\Top Level 1\Subject 1\Session 1\male.ASF
:FULLY-SPECIFIED
:DEGREES
179
root 22.1558 17.983 4.23914 85.3337 -84.2998 -79.5766
lowerback -3.14364 2.16561 6.47156
upperback -3.24661 2.65059 3.90887
thorax -1.48019 1.17606 0.462081
lowerneck -12.508 -4.33237 -7.36021
upperneck -14.494 -4.95179 9.11192
head -1.89007 -2.54786 3.89817
rclavicle -1.78409e-014 -9.62118e-014
rhumerus 54.7047 8.85976 -73.0439
rradius 57.3299
rwrist -32.1948
rhand -9.44886 -36.7208
rfingers 7.12502
rthumb 16.5143 -426.038
lclavicle -1.78409e-014 -9.62118e-014
lhumerus 44.4374 -18.0751 75.7322
lradius 58.2815
lwrist 9.27062
lhand -12.5187 27.8263
lfingers 7.12502
lthumb 13.5571 57.3649
rfemur -19.2176 -2.94284 26.6976
rtibia 17.6328
rfoot -2.31946 -10.1331
rtoes 17.6327
lfemur -13.7745 -2.23641 -10.1842
ltibia 50.7398
lfoot 0.707495 -2.16549
ltoes -15.2339
180
root 22.009 17.9979 4.21282 85.0475 -84.0355 -79.3727
lowerback -3.07767 2.33464 6.75538
upperback -3.21325 2.87254 3.93125
thorax -1.46284 1.28141 0.332463
lowerneck -12.5403 -4.48399 -7.3994
upperneck -14.2101 -5.13949 9.11856
head -1.78418 -2.6293 3.89197
rclavicle -2.4699e-014 -2.8625e-014
rhumerus 54.6552 8.57424 -73.8407
rradius 56.7627
rwrist -32.8074
rhand -9.44345 -36.9877
rfingers 7.12502
rthumb 16.5195 -426.305
lclavicle -2.4699e-014 -2.8625e-014
lhumerus 44.0199 -18.4972 76.0182
lradius 58.7305
lwrist 8.87854
lhand -12.7521 27.8008
lfingers 7.12502
lthumb 13.3321 57.3543
rfemur -18.4674 -2.79233 27.0798
rtibia 17.4335
rfoot -2.6562 -10.1649
rtoes 17.8236
lfemur -14.865 -2.14156 -9.73809
ltibia 51.2413
lfoot 0.424182 -1.78943
ltoes -15.2121
181
root 21.8635 18.0113 4.18705 84.6854 -83.7719 -79.093
lowerback -3.00956 2.50053 7.03576
upperback -3.17835 3.09082 3.95218
thorax -1.44348 1.38516 0.203346
lowerneck -12.553 -4.63715 -7.44299
upperneck -13.74 -5.37747 8.87173
head -1.85268 -2.71535 4.15766
rclavicle 6.26172e-015 -1.74931e-014
rhumerus 54.5985 8.26995 -74.6417
rradius 56.1829
rwrist -33.417
rhand -9.44792 -37.2536
rfingers 7.12502
rthumb 16.5152 -426.571
lclavicle 6.26172e-015 -1.74931e-014
lhumerus 43.5658 -18.9322 76.3169
lradius 59.1776
lwrist 8.49397
lhand -12.982 27.7817
lfingers 7.12502
lthumb 13.1106 57.3495
rfemur -17.7253 -2.63018 27.4595
rtibia 17.2375
rfoot -2.99273 -10.2166
rtoes 17.9948
lfemur -15.947 -2.05873 -9.3045
ltibia 51.6243
lfoot 0.0888012 -1.38285
ltoes -15.1913
182
root 21.7192 18.0233 4.16188 84.281 -83.5104 -78.7693
lowerback -2.94196 2.66353 7.31205
upperback -3.14231 3.30552 3.97136
thorax -1.4211 1.48739 0.0749054
lowerneck -12.5792 -4.7926 -7.48763
upperneck -13.4572 -5.56877 8.88676
head -1.73206 -2.79992 4.15256
rclavicle 2.5345e-015 -2.94201e-014
rhumerus 54.5344 7.94797 -75.4464
rradius 55.5913
rwrist -34.0217
rhand -9.46126 -37.5178
rfingers 7.12502
rthumb 16.5024 -426.836
lclavicle 2.5345e-015 -2.94201e-014
lhumerus 43.0754 -19.3782 76.6287
lradius 59.6179
lwrist 8.11547
lhand -13.2119 27.7669
lfingers 7.12502
lthumb 12.8889 57.3489
rfemur -16.9949 -2.45702 27.8362
rtibia 17.0484
rfoot -3.33244 -10.2872
rtoes 18.1413
lfemur -17.0162 -1.98675 -8.88474
ltibia 51.8828
lfoot -0.292685 -0.947557
ltoes -15.1535
183
root 21.576 18.0339 4.13736 83.8468 -83.2515 -78.4142
lowerback -2.87594 2.8228 7.58303
upperback -3.10386 3.5153 3.98969
thorax -1.39405 1.58755 -0.0512061
lowerneck -12.6115 -4.94869 -7.53492
upperneck -13.1648 -5.76059 8.90575
head -1.60716 -2.88467 4.14879
rclavicle -4.34841e-015 7.39479e-014
rhumerus 54.4639 7.61056 -76.2541
rradius 54.9915
rwrist -34.6197
rhand -9.48168 -37.7782
rfingers 7.12502
rthumb 16.4827 -427.098
lclavicle -4.34841e-015 7.39479e-014
lhumerus 42.5505 -19.8299 76.9555
lradius 60.0477
lwrist 7.74254
lhand -13.4354 27.7591
lfingers 7.12502
lthumb 12.6734 57.3546
rfemur -16.2768 -2.27638 28.2102
rtibia 16.8676
rfoot -3.67512 -10.378
rtoes 18.2504
lfemur -18.0672 -1.92606 -8.47959
ltibia 52.012
lfoot -0.716288 -0.486629
ltoes -15.1097
184
root 21.4338 18.043 4.11348 83.4005 -82.9975 -78.0446
lowerback -2.81126 2.97853 7.84611
upperback -3.06484 3.72062 4.0067
thorax -1.36455 1.68583 -0.174074
lowerneck -12.6464 -5.10467 -7.58219
upperneck -12.8635 -5.95253 8.92598
head -1.47899 -2.96953 4.14502
rclavicle 3.72721e-016 -6.83819e-014
rhumerus 54.3823 7.25894 -77.0637
rradius 54.3832
rwrist -35.2081
rhand -9.5072 -38.0271
rfingers 7.12502
rthumb 16.4582 -427.349
lclavicle 3.72721e-016 -6.83819e-014
lhumerus 41.9889 -20.2867 77.3002
lradius 60.4623
lwrist 7.37489
lhand -13.6532 27.7537
lfingers 7.12502
lthumb 12.4635 57.3621
rfemur -15.5731 -2.0895 28.5793
rtibia 16.6984
rfoot -4.02069 -10.4892
rtoes 18.3238
lfemur -19.0953 -1.87682 -8.09112
ltibia 52.0072
lfoot -1.17709 -0.0025828
ltoes -15.0571
